<svg width="32" height="32" viewBox="0 0 32 32" fill="none" xmlns="http://www.w3.org/2000/svg">
<path d="M16 0L16.56 1.76884H18.4L16.96 2.89447L17.52 4.66332L16 3.53769L14.48 4.66332L15.04 2.89447L13.6 1.76884H15.44L16 0ZM16 27.3367L16.56 29.1055H18.4L16.96 30.1508L17.52 32L16 30.8744L14.48 32L15.04 30.1508L13.6 29.1055H15.44L16 27.3367ZM22.72 25.0854L23.28 26.8543H25.2L23.68 27.9799L24.24 29.7487L22.72 28.6231L21.2 29.7487L21.84 27.9799L20.32 26.8543H22.16L22.72 25.0854ZM27.36 20.4221L27.92 22.191H29.84L28.32 23.3166L28.88 25.0854L27.36 23.9598L25.84 25.0854L26.48 23.3166L24.96 22.191H26.8L27.36 20.4221ZM29.6 13.6683L30.16 15.4372H32L30.48 16.5628L31.04 18.3317L29.6 17.206L28.08 18.3317L28.64 16.5628L27.12 15.4372H28.96L29.6 13.6683ZM27.36 6.83417L27.92 8.68342H29.84L28.32 9.72864L28.88 11.4975L27.36 10.4523L25.84 11.4975L26.48 9.72864L24.96 8.68342H26.8L27.36 6.83417ZM22.72 2.17085L23.28 4.0201H25.2L23.68 5.06533L24.24 6.83417L22.72 5.78894L21.2 6.83417L21.84 5.06533L20.32 4.0201H22.16L22.72 2.17085ZM9.28 25.0854L8.72 26.8543H6.8L8.32 27.9799L7.76 29.7487L9.28 28.6231L10.8 29.7487L10.16 27.9799L11.68 26.8543H9.84L9.28 25.0854ZM4.64 20.4221L4.08 22.191H2.16L3.68 23.3166L3.12 25.0854L4.64 23.9598L6.16 25.0854L5.52 23.3166L7.04 22.191H5.2L4.64 20.4221ZM2.4 13.6683L1.84 15.4372H0L1.52 16.5628L0.96 18.3317L2.4 17.206L3.92 18.3317L3.36 16.5628L4.88 15.4372H3.04L2.4 13.6683ZM4.64 6.83417L4.08 8.68342H2.16L3.68 9.72864L3.12 11.4975L4.64 10.4523L6.16 11.4975L5.52 9.72864L7.04 8.68342H5.2L4.64 6.83417ZM9.28 2.17085L8.72 4.0201H6.8L8.32 5.06533L7.76 6.83417L9.28 5.78894L10.8 6.83417L10.16 5.06533L11.68 4.0201H9.84L9.28 2.17085Z" fill="currentColor"/>
<path d="M21.7752 12.2402C21.7752 12.2402 22.0589 12.7592 22.1724 13.0475L22.7399 12.8024C22.6122 12.4997 22.4703 12.1969 22.3001 11.9086L21.7752 12.2402Z" fill="currentColor"/>
<path d="M19.1791 10.5103C19.4344 10.6689 19.8317 10.9572 19.8175 10.9716C19.8033 10.986 20.1154 10.6256 20.2005 10.5247C19.9735 10.3373 19.7465 10.1643 19.4912 10.0202L19.1791 10.5103Z" fill="currentColor"/>
<path d="M18.0443 9.97688C18.1153 10.0057 18.172 10.0201 18.2288 10.049C18.2997 10.0778 18.3706 10.1066 18.4416 10.1355C18.5409 10.1787 18.6402 10.222 18.7395 10.2796L19.009 9.74623C18.8955 9.68857 18.782 9.64532 18.6685 9.58766C18.5267 9.52999 18.3706 9.45791 18.2146 9.41467C18.1862 9.52999 18.0585 9.96247 18.0443 9.97688Z" fill="currentColor"/>
<path d="M22.2155 13.1484C22.3148 13.4078 22.4709 13.9124 22.4709 13.9124L23.0667 13.7394C22.9958 13.4655 22.9107 13.206 22.8114 12.9465C22.7972 12.9465 22.3432 13.1051 22.2155 13.1484Z" fill="currentColor"/>
<path d="M17.9021 10.6833C18.1433 10.7698 18.3703 10.8707 18.5973 11.0005L18.9236 10.4527C18.7533 10.3662 18.5831 10.2797 18.4128 10.1932C18.3419 10.1643 18.271 10.1355 18.2 10.1067L17.9021 10.6833Z" fill="currentColor"/>
<path d="M21.1652 11.3753C21.3496 11.5771 21.6333 12.024 21.6333 12.024L22.1583 11.7068C22.0164 11.4762 21.8461 11.2455 21.6759 11.0293L21.1652 11.3753Z" fill="currentColor"/>
<path d="M20.201 11.3032C20.201 11.3032 20.2719 11.3753 20.3145 11.4185C20.4563 11.5627 20.5982 11.7213 20.7259 11.8798L21.2082 11.5483C21.0522 11.3609 20.8961 11.1735 20.7259 10.986C20.6833 10.9572 20.6124 10.8707 20.6124 10.8707L20.201 11.3032Z" fill="currentColor"/>
<path d="M20.5267 12.8168C20.6686 13.0475 20.7962 13.2926 20.8956 13.5376L21.4772 13.2781C21.3637 13.0187 21.236 12.7592 21.08 12.5141L20.5267 12.8168Z" fill="currentColor"/>
<path d="M19.9313 12.0383C20.1158 12.2402 20.286 12.4564 20.4279 12.6726L20.9812 12.3555C20.8109 12.096 20.6123 11.8509 20.3995 11.6203L19.9313 12.0383Z" fill="currentColor"/>
<path d="M21.5202 13.2061C21.5202 13.2061 21.5485 13.2637 21.5627 13.307C21.6479 13.5232 21.733 13.7539 21.8039 13.9845L22.3714 13.8404C22.3004 13.5809 22.2153 13.3214 22.1018 13.0763L22.0593 12.9754L21.5202 13.2061Z" fill="currentColor"/>
<path d="M20.967 12.1969C21.123 12.4276 21.3926 12.9033 21.3926 12.9033L21.9033 12.6005C21.7756 12.3555 21.6338 12.1104 21.4777 11.8797L20.967 12.1969Z" fill="currentColor"/>
<path d="M19.0231 11.2455C19.2501 11.4041 19.4629 11.5627 19.6473 11.7501L20.1155 11.3176C19.9169 11.1302 19.7041 10.9428 19.4629 10.7842L19.0231 11.2455Z" fill="currentColor"/>
<path d="M18.7964 8.80915C18.8532 8.83799 18.9099 8.8524 18.9667 8.88123C19.1369 8.95331 19.4632 9.11189 19.4632 9.11189C19.4632 9.11189 19.6051 8.80915 19.7186 8.60733C19.4774 8.47759 19.2362 8.36226 18.9809 8.26135C18.9099 8.43434 18.7964 8.76591 18.7964 8.80915Z" fill="currentColor"/>
<path d="M22.144 11.5338L22.5554 12.2257C22.5554 12.2257 22.8675 12.0816 23.0661 11.9951C22.9243 11.7212 22.7682 11.4617 22.6121 11.2166L22.144 11.5338Z" fill="currentColor"/>
<path d="M20.2432 9.57331C20.2432 9.57331 20.6262 9.86163 20.8106 10.0202L21.1937 9.61656C20.9951 9.44357 20.7823 9.27058 20.5695 9.12642L20.2432 9.57331Z" fill="currentColor"/>
<path d="M18.0159 9.27055C18.2429 9.34263 18.484 9.42913 18.6968 9.51562L18.7394 9.53004C18.7678 9.44354 18.9522 9.06873 19.0089 8.96782L18.938 8.93899C18.711 8.83808 18.484 8.75158 18.2429 8.6795L18.0159 9.27055Z" fill="currentColor"/>
<path d="M19.3212 9.81837C19.5198 9.93369 19.7042 10.049 19.8887 10.1788L20.2859 9.68862C20.0731 9.54447 19.8603 9.40031 19.6475 9.28498L19.3212 9.81837Z" fill="currentColor"/>
<path d="M22.6687 12.4708C22.6687 12.4708 22.7538 12.6726 22.7964 12.7735C22.8532 12.9177 22.9667 13.206 22.9667 13.206C22.9667 13.206 23.3355 13.0907 23.5057 13.033C23.4206 12.7735 23.3071 12.5285 23.1936 12.2834L22.6687 12.4708Z" fill="currentColor"/>
<path d="M21.3496 10.5246C21.534 10.7265 21.7185 10.9427 21.8745 11.1589L22.3285 10.8274C22.1441 10.5967 21.9596 10.3661 21.7468 10.1498L21.3496 10.5246Z" fill="currentColor"/>
<path d="M20.3285 10.5103C20.4846 10.6401 20.6406 10.7842 20.7825 10.9284C20.8251 10.9861 20.8818 11.0293 20.9244 11.087C20.9953 11.0005 21.279 10.7266 21.3642 10.6545C21.3074 10.5968 21.2648 10.5536 21.2081 10.4959C21.052 10.3373 20.896 10.1932 20.7257 10.049L20.3285 10.5103Z" fill="currentColor"/>
<path d="M23.0093 13.3502C23.0093 13.3502 23.1653 13.8835 23.2221 14.2007C23.2646 14.4313 23.293 14.6764 23.3214 14.9071C23.3214 14.9647 23.3356 15.0224 23.3356 15.0801C23.3356 15.1377 23.3356 15.1954 23.3498 15.253V15.6279C23.3356 15.0512 23.2646 14.4746 23.1228 13.9268C23.0235 13.9556 22.7823 13.9989 22.5411 14.0421C22.5695 14.143 22.5837 14.2584 22.6121 14.3593C22.683 14.7917 22.7255 15.2242 22.7114 15.6567C22.6972 15.2242 22.6546 14.7917 22.5695 14.3737C22.5411 14.2584 22.5269 14.1574 22.4986 14.0565L21.846 14.1863L21.8602 14.2151L21.9027 14.4313C21.9027 14.4458 21.9027 14.4602 21.9027 14.4602V14.489C21.9737 14.8782 22.002 15.2675 21.9878 15.6567C21.9737 15.2675 21.9311 14.8782 21.8602 14.5034C21.775 14.1286 21.6615 13.7538 21.5197 13.3934V13.379C21.4062 13.4366 21.1224 13.552 20.9522 13.6241C22.0304 16.3054 20.7536 19.376 18.1149 20.4572C16.7955 21.005 15.3201 20.9617 14.0291 20.3707C14.5824 20.8176 15.1782 21.1779 15.8308 21.4663C15.8875 21.4951 15.9585 21.5239 16.0152 21.5383C16.5118 21.7402 17.0367 21.8987 17.5758 21.9997L17.746 22.0285C18.1574 22.0861 18.5688 22.1294 18.9803 22.1294C19.0937 22.1294 19.1931 22.1294 19.3065 22.1294L19.4768 22.115C20.1294 22.0717 20.7678 21.9564 21.392 21.7546C23.7328 19.5922 24.5982 16.2189 23.5768 13.1627L23.0093 13.3502Z" fill="currentColor"/>
<path d="M10.6245 14.3305C10.6245 11.9375 11.6602 9.67421 13.4619 8.13171C9.30517 9.63096 7.1346 14.2729 8.61002 18.4823C10.0854 22.6917 14.6536 24.8973 18.7961 23.3981C19.6899 23.0809 20.5269 22.5908 21.2504 21.9709C17.0937 23.4702 12.5397 21.2501 11.0643 17.0263C10.7664 16.1613 10.6245 15.2531 10.6245 14.3305Z" fill="currentColor"/>
</svg>
