<svg width="24" height="24" viewBox="0 0 24 24" fill="none" xmlns="http://www.w3.org/2000/svg">
<path d="M9.62537 17.717C9.71509 17.8068 9.82163 17.8781 9.93891 17.9267C10.0562 17.9753 10.1819 18.0004 10.3089 18.0004C10.4358 18.0004 10.5615 17.9753 10.6788 17.9267C10.7961 17.8781 10.9027 17.8068 10.9924 17.717L15.1724 13.537C16.0204 12.688 16.0204 11.311 15.1724 10.462L10.9924 6.283C10.9027 6.19317 10.7961 6.12191 10.6788 6.07328C10.5615 6.02466 10.4358 5.99963 10.3089 5.99963C10.1819 5.99963 10.0562 6.02466 9.93891 6.07328C9.82163 6.12191 9.71509 6.19317 9.62537 6.283L9.28337 6.625C9.19354 6.71472 9.12227 6.82127 9.07365 6.93855C9.02503 7.05583 9 7.18154 9 7.3085C9 7.43546 9.02503 7.56118 9.07365 7.67846C9.12227 7.79574 9.19354 7.90229 9.28337 7.992L13.2924 12L9.28337 16.009C9.10249 16.1903 9.00091 16.4359 9.00091 16.692C9.00091 16.9481 9.10249 17.1937 9.28337 17.375L9.62537 17.717Z" fill="black"/>
</svg>
