<svg xmlns="http://www.w3.org/2000/svg" version="1.1" xmlns:xlink="http://www.w3.org/1999/xlink" width="64" height="64"><svg width="64" height="64" viewBox="0 0 64 64" fill="none" xmlns="http://www.w3.org/2000/svg">
<path d="M55.018 16.7092C55.018 16.7092 56.1635 18.8198 56.6217 19.9924L58.9126 18.9957C58.3972 17.7645 57.8244 16.5333 57.1371 15.3607L55.018 16.7092Z" fill="#31CC88"></path>
<path d="M44.5369 9.67374C45.5678 10.3187 47.1715 11.4912 47.1142 11.5499C47.057 11.6085 48.317 10.1428 48.6607 9.73237C47.7443 8.9702 46.8279 8.26665 45.7969 7.68037L44.5369 9.67374Z" fill="#31CC88"></path>
<path d="M39.9557 7.5044C40.242 7.62166 40.4711 7.68029 40.7002 7.79755C40.9866 7.9148 41.273 8.03206 41.5594 8.14932C41.9603 8.3252 42.3612 8.50109 42.7621 8.73561L43.8504 6.56635C43.3922 6.33183 42.934 6.15595 42.4758 5.92143C41.903 5.68692 41.273 5.39377 40.643 5.21789C40.5284 5.68692 40.0129 7.44578 39.9557 7.5044Z" fill="#31CC88"></path>
<path d="M56.7957 20.4026C57.1966 21.458 57.8266 23.51 57.8266 23.51L60.2322 22.8064C59.9458 21.6925 59.6022 20.6372 59.2012 19.5818C59.144 19.5818 57.3112 20.2268 56.7957 20.4026Z" fill="#31CC88"></path>
<path d="M39.3815 10.3774C40.3552 10.7292 41.2716 11.1396 42.188 11.6673L43.5053 9.43938C42.818 9.0876 42.1307 8.73583 41.4434 8.38406C41.157 8.2668 40.8707 8.14955 40.5843 8.03229L39.3815 10.3774Z" fill="#31CC88"></path>
<path d="M52.5552 13.1916C53.2998 14.0124 54.4453 15.8299 54.4453 15.8299L56.5645 14.54C55.9917 13.602 55.3044 12.6639 54.6171 11.7845L52.5552 13.1916Z" fill="#31CC88"></path>
<path d="M48.6625 12.8985C48.6625 12.8985 48.9488 13.1916 49.1207 13.3675C49.6934 13.9538 50.2661 14.5987 50.7816 15.2436L52.729 13.8951C52.0989 13.133 51.4689 12.3708 50.7816 11.6086C50.6098 11.4914 50.3234 11.1396 50.3234 11.1396L48.6625 12.8985Z" fill="#31CC88"></path>
<path d="M49.9775 19.0544C50.5502 19.9924 51.0657 20.9891 51.4666 21.9858L53.8149 20.9305C53.3567 19.8752 52.8412 18.8199 52.2112 17.8232L49.9775 19.0544Z" fill="#31CC88"></path>
<path d="M47.5739 15.8882C48.3185 16.709 49.0058 17.5885 49.5785 18.4679L51.8122 17.1781C51.1249 16.1227 50.3231 15.1261 49.464 14.188L47.5739 15.8882Z" fill="#31CC88"></path>
<path d="M53.9884 20.6374C53.9884 20.6374 54.1029 20.8719 54.1602 21.0478C54.5038 21.9272 54.8475 22.8653 55.1339 23.8033L57.4249 23.2171C57.1385 22.1617 56.7949 21.1064 56.3367 20.1097L56.1648 19.6993L53.9884 20.6374Z" fill="#31CC88"></path>
<path d="M51.755 16.5331C52.385 17.4712 53.4733 19.4059 53.4733 19.4059L55.5351 18.1747C55.0197 17.178 54.4469 16.1813 53.8169 15.2433L51.755 16.5331Z" fill="#31CC88"></path>
<path d="M43.9072 12.6638C44.8236 13.3088 45.6827 13.9537 46.4273 14.7158L48.3174 12.957C47.5155 12.1948 46.6564 11.4326 45.6827 10.7877L43.9072 12.6638Z" fill="#31CC88"></path>
<path d="M42.9921 2.75529C43.2212 2.87255 43.4503 2.93118 43.6794 3.04843C44.3667 3.34158 45.684 3.98649 45.684 3.98649C45.684 3.98649 46.2568 2.75529 46.715 1.93449C45.7413 1.40683 44.7676 0.937805 43.7367 0.527405C43.4503 1.23095 42.9921 2.57941 42.9921 2.75529Z" fill="#31CC88"></path>
<path d="M56.5068 13.8362L58.1678 16.6503C58.1678 16.6503 59.4278 16.0641 60.2297 15.7123C59.6569 14.5983 59.0269 13.543 58.3969 12.5463L56.5068 13.8362Z" fill="#31CC88"></path>
<path d="M48.8328 5.86309C48.8328 5.86309 50.3793 7.03566 51.1239 7.68058L52.6703 6.03897C51.8684 5.33543 51.0093 4.63189 50.1502 4.0456L48.8328 5.86309Z" fill="#31CC88"></path>
<path d="M39.8408 4.63178C40.7572 4.92492 41.7309 5.27669 42.59 5.62846L42.7618 5.68709C42.8764 5.33532 43.6209 3.81098 43.85 3.40058L43.5637 3.28332C42.6473 2.87292 41.7309 2.52115 40.7572 2.228L39.8408 4.63178Z" fill="#31CC88"></path>
<path d="M45.1106 6.85972C45.9125 7.32874 46.657 7.79777 47.4016 8.32543L49.0053 6.33206C48.1462 5.74577 47.2871 5.15949 46.4279 4.69046L45.1106 6.85972Z" fill="#31CC88"></path>
<path d="M58.6253 17.6471C58.6253 17.6471 58.969 18.4679 59.1408 18.8783C59.3699 19.4646 59.8281 20.6372 59.8281 20.6372C59.8281 20.6372 61.3172 20.1681 62.0045 19.9336C61.6609 18.8783 61.2027 17.8816 60.7445 16.8849L58.6253 17.6471Z" fill="#31CC88"></path>
<path d="M53.2997 9.73211C54.0443 10.5529 54.7889 11.4323 55.4189 12.3118L57.2517 10.9633C56.5071 10.0253 55.7626 9.0872 54.9034 8.20777L53.2997 9.73211Z" fill="#31CC88"></path>
<path d="M49.1774 9.67394C49.8074 10.2016 50.4375 10.7879 51.0102 11.3742C51.182 11.6087 51.4111 11.7846 51.583 12.0191C51.8693 11.6673 53.0148 10.5534 53.3585 10.2602C53.1294 10.0257 52.9576 9.84983 52.7285 9.61532C52.0984 8.9704 51.4684 8.38411 50.7811 7.79783L49.1774 9.67394Z" fill="#31CC88"></path>
<path d="M60.0002 21.2234C60.0002 21.2234 60.6302 23.3926 60.8593 24.6824C61.0312 25.6205 61.1457 26.6172 61.2602 27.5553C61.2602 27.7898 61.3175 28.0243 61.3175 28.2588C61.3175 28.4933 61.3175 28.7278 61.3748 28.9623V30.4867C61.3175 28.1415 61.0312 25.7964 60.4584 23.5685C60.0575 23.6858 59.0838 23.8616 58.1102 24.0375C58.2247 24.4479 58.282 24.917 58.3965 25.3274C58.6829 27.0862 58.8547 28.8451 58.7974 30.6039C58.7402 28.8451 58.5683 27.0862 58.2247 25.386C58.1101 24.917 58.0529 24.5066 57.9383 24.0962L55.3037 24.6238L55.361 24.7411L55.5328 25.6205C55.5328 25.6791 55.5328 25.7378 55.5328 25.7378V25.855C55.8192 27.438 55.9337 29.021 55.8764 30.6039C55.8192 29.021 55.6473 27.438 55.361 25.9137C55.0173 24.3893 54.5591 22.865 53.9864 21.3992V21.3406C53.5282 21.5751 52.3827 22.0442 51.6954 22.3373C56.0483 33.2422 50.8935 45.7301 40.2404 50.1273C34.9139 52.3552 28.9573 52.1793 23.7453 49.7755C25.979 51.593 28.3846 53.0587 31.0192 54.2313C31.2483 54.3485 31.5347 54.4658 31.7638 54.5244C33.7684 55.3452 35.8876 55.9901 38.064 56.4005L38.7513 56.5178C40.4123 56.7523 42.0732 56.9282 43.7342 56.9282C44.1924 56.9282 44.5933 56.9282 45.0515 56.9282L45.7388 56.8696C48.3734 56.6937 50.9508 56.2247 53.4709 55.4038C62.9212 46.6096 66.415 32.8905 62.2912 20.4612L60.0002 21.2234Z" fill="#31CC88"></path>
<path d="M10.0006 25.2103C10.0006 15.478 14.1816 6.27326 21.4555 0C4.67403 6.09738 -4.089 24.9758 1.86757 42.0954C7.82414 59.2149 26.2666 68.1851 42.9908 62.0877C46.5991 60.7979 49.9783 58.8045 52.8993 56.2835C36.1178 62.3809 17.7327 53.3521 11.7761 36.1739C10.5733 32.6562 10.0006 28.9625 10.0006 25.2103Z" fill="#4169E1"></path>
</svg><style>@media (prefers-color-scheme: light) { :root { filter: none; } }
@media (prefers-color-scheme: dark) { :root { filter: none; } }
</style></svg>