<svg width="24" height="25" viewBox="0 0 24 25" fill="none" xmlns="http://www.w3.org/2000/svg">
<path d="M11 6.13818C11 5.74036 10.842 5.35883 10.5607 5.07752C10.2794 4.79622 9.89782 4.63818 9.5 4.63818C9.10218 4.63818 8.72064 4.79622 8.43934 5.07752C8.15804 5.35883 8 5.74036 8 6.13818V13.6382L6.53018 12.1682C6.23572 11.8741 5.85143 11.6868 5.43834 11.636C5.02526 11.5853 4.60706 11.674 4.25018 11.8882C3.91513 12.0891 3.67166 12.4127 3.57157 12.7903C3.47147 13.1679 3.52263 13.5697 3.71418 13.9102C5.59318 17.2502 6.68818 19.1592 7.00018 19.6382C7.06526 19.7384 7.13059 19.8384 7.19618 19.9382C7.7427 20.7681 8.48676 21.4492 9.36157 21.9205C10.2364 22.3917 11.2145 22.6384 12.2082 22.6382H12.0002H14.0002C15.5915 22.6382 17.1176 22.006 18.2428 20.8808C19.368 19.7556 20.0002 18.2295 20.0002 16.6382V8.13818C20.0002 7.74036 19.8421 7.35883 19.5608 7.07752C19.2795 6.79622 18.898 6.63818 18.5002 6.63818C18.1024 6.63818 17.7208 6.79622 17.4395 7.07752C17.1582 7.35883 17.0002 7.74036 17.0002 8.13818M11 6.13818V12.6382M11 6.13818V4.13818C11 3.9412 11.0388 3.74615 11.1142 3.56416C11.1896 3.38217 11.3001 3.21681 11.4393 3.07752C11.5786 2.93824 11.744 2.82775 11.926 2.75236C12.108 2.67698 12.303 2.63818 12.5 2.63818C12.697 2.63818 12.892 2.67698 13.074 2.75236C13.256 2.82775 13.4214 2.93824 13.5607 3.07752C13.6999 3.21681 13.8104 3.38217 13.8858 3.56416C13.9612 3.74615 14 3.9412 14 4.13818V12.6382M14 6.13818C14 5.74036 14.158 5.35883 14.4393 5.07752C14.7206 4.79622 15.1022 4.63818 15.5 4.63818C15.8978 4.63818 16.2794 4.79622 16.5607 5.07752C16.842 5.35883 17 5.74036 17 6.13818V12.6382" stroke="#131315" stroke-width="2" stroke-linecap="round" stroke-linejoin="round"/>
</svg>
