<svg width="24" height="25" viewBox="0 0 24 25" fill="none" xmlns="http://www.w3.org/2000/svg">
<path d="M12 12.6382C11.7348 12.6382 11.4804 12.5328 11.2929 12.3453C11.1054 12.1578 11 11.9034 11 11.6382C11 11.373 11.1054 11.1186 11.2929 10.9311C11.4804 10.7435 11.7348 10.6382 12 10.6382C12.2652 10.6382 12.5196 10.7435 12.7071 10.9311C12.8946 11.1186 13 11.373 13 11.6382C13 11.9034 12.8946 12.1578 12.7071 12.3453C12.5196 12.5328 12.2652 12.6382 12 12.6382ZM12 12.6382V15.1382M11.9998 3.63818C14.3357 5.70476 17.3843 6.78075 20.4998 6.63818C20.9534 8.1812 21.0922 9.79965 20.908 11.3974C20.7237 12.9951 20.2202 14.5395 19.4272 15.9387C18.6343 17.338 17.5682 18.5636 16.2923 19.5427C15.0164 20.5218 13.5566 21.2344 11.9998 21.6382C10.443 21.2344 8.98331 20.5218 7.70738 19.5427C6.43144 18.5636 5.36534 17.338 4.57243 15.9387C3.77952 14.5395 3.27597 12.9951 3.09171 11.3974C2.90745 9.79965 3.04624 8.1812 3.49983 6.63818C6.61536 6.78075 9.664 5.70476 11.9998 3.63818Z" stroke="#131315" stroke-width="2" stroke-linecap="round" stroke-linejoin="round"/>
</svg>
